Coordinates
version=1
nRows=12
nColumns=24
inDegrees=yes

Units are S.I. units (second, meters, Newtons, ...)
Angles are in degrees.

endheader
time	pelvis_tilt	pelvis_list	pelvis_rotation	pelvis_tx	pelvis_ty	pelvis_tz	hip_flexion_r	hip_adduction_r	hip_rotation_r	knee_angle_r	ankle_angle_r	subtalar_angle_r	mtp_angle_r	hip_flexion_l	hip_adduction_l	hip_rotation_l	knee_angle_l	ankle_angle_l	subtalar_angle_l	mtp_angle_l	lumbar_extension	lumbar_bending	lumbar_rotation
      1.26750000	     -2.39163283	     -4.40395096	     -6.81555320	      0.03410906	      0.95681887	      0.33869738	    -15.98213881	      6.45683814	     -1.11895405	     -9.08881298	     13.12793621	      8.49419547	     12.35684240	     28.92109793	     -5.23131410	     -7.61736566	      1.51765191	      4.01295145	     -0.92703791	      0.65541612	     -1.47939907	      8.28520773	     10.98279437
      1.27166667	     -2.46984738	     -4.33704002	     -6.88204308	      0.04015908	      0.95600017	      0.33838683	    -16.18137588	      6.27080361	     -1.25120795	     -9.21959446	     12.88316148	      8.82735628	     12.57021910	     28.98331048	     -5.15376106	     -7.51142949	      1.41805726	      3.91942312	     -1.12117564	      0.71838766	     -1.33896718	      8.20837434	     11.10121163
      1.27583333	     -2.53996454	     -4.24676316	     -6.94882088	      0.04627214	      0.95523242	      0.33807261	    -16.38418802	      6.05864760	     -1.37414451	     -9.35791338	     12.63491851	      9.07319128	     12.81400499	     29.03210388	     -5.05454311	     -7.38952981	      1.26329923	      3.81051569	     -1.37214254	      0.79010131	     -1.19535529	      8.10644490	     11.17656719
      1.28000000	     -2.62560578	     -4.14255724	     -7.02006575	      0.05242565	      0.95449259	      0.33777613	    -16.56654677	      5.83692282	     -1.45547507	     -9.50224683	     12.37248004	      9.22291788	     13.00109560	     29.10855330	     -4.94978904	     -7.26518119	      1.02544619	      3.70814925	     -1.63638154	      0.84469325	     -1.03378991	      7.98678637	     11.24387257
      1.28416667	     -2.69593348	     -4.01551338	     -7.09209916	      0.05865459	      0.95380532	      0.33745380	    -16.74096166	      5.57492803	     -1.64326969	     -9.67840212	     12.07200542	      9.49945730	     16.83492013	     29.16356888	     -4.81898912	     -7.13389981	      0.74343748	      3.53420581	     -2.05673496	      1.94866301	     -0.85865273	      7.85439471	     11.34180186
      1.28833333	     -2.79043241	     -3.88809524	     -7.16057868	      0.06490609	      0.95314876	      0.33716373	    -16.90958712	      5.33453514	     -1.68177970	     -9.81794712	     11.70689905	      9.54619899	     16.85102522	     29.25862442	     -4.69542746	     -6.99089518	      0.38249454	      3.36765066	     -2.39270952	      1.94928902	     -0.67837409	      7.70646133	     11.39180204
      1.29250000	     -2.86875095	     -3.75824544	     -7.21529585	      0.07120374	      0.95253942	      0.33682306	    -17.08173418	      5.08435214	     -1.78834728	     -9.97786265	     11.35606962	      9.75128752	     16.92397320	     29.32353769	     -4.55359356	     -6.75307082	      0.00931807	      3.07879913	     -3.00827506	      1.96120444	     -0.49467547	      7.57869468	     11.48901478
      1.29666667	     -2.96024099	     -3.60323959	     -7.28113936	      0.07755406	      0.95196708	      0.33650243	    -17.21784732	      4.80686690	     -1.88659746	    -10.17809785	     10.99506520	      9.90401534	     17.03888127	     29.40399195	     -4.39527902	     -6.54698227	     -0.41092170	      2.78569488	     -3.59297821	      1.98431882	     -0.28625933	      7.39675853	     11.56301971
      1.30083333	     -3.03862749	     -3.41093668	     -7.33841415	      0.08396035	      0.95144688	      0.33614239	    -17.34389422	      4.48500312	     -2.02679575	    -10.41779399	     10.66785783	     10.07198349	     17.31066254	     29.46208215	     -4.18943074	     -6.31035203	     -0.84467733	      2.44003607	     -4.27634466	      2.04546730	     -0.09614560	      7.17596673	     11.62454750
      1.30500000	     -3.15491586	     -3.24832920	     -7.39975263	      0.09038546	      0.95094079	      0.33582201	    -17.44763124	      4.21139943	     -2.05355181	    -10.61118998	     10.17231202	     10.12151354	     17.47610694	     29.59070101	     -4.02547670	     -6.13478784	     -1.37145757	      2.09033956	     -4.84309574	      2.08081262	      0.14865586	      7.00078670	     11.70180871
      1.30916667	     -3.26367116	     -3.04953207	     -7.45277352	      0.09685878	      0.95047974	      0.33545689	    -17.52710797	      3.89419103	     -2.13233265	    -10.85942614	      9.72381624	     10.19382321	     17.70657975	     29.69200003	     -3.81232221	     -5.89940120	     -1.87801346	      1.65081248	     -5.56976982	      2.12905151	      0.38353747	      6.78239268	     11.77434240
      1.31333333	     -3.35802343	     -2.82619307	     -7.51100549	      0.10337402	      0.95008346	      0.33506557	    -17.58977841	      3.54210900	     -2.23045384	    -11.16581672	      9.28585401	     10.27020547	     18.08776969	     29.76901210	     -3.56946230	     -5.66394940	     -2.39164907	      1.21509370	     -6.36993837	      2.21022937	      0.60014906	      6.53310177	     11.82775334
